<svg version="1.1" xmlns="http://www.w3.org/2000/svg">
	<symbol fill="none" viewBox="0 0 13 13" id="icon-instagram">
		<path fill="currentColor" fill-rule="evenodd" d="M6.5 1.172c1.736 0 1.942.006 2.627.037.634.028.979.135 1.207.223.303.118.52.26.747.487.228.228.369.444.487.747.088.23.195.574.224 1.208.031.685.038.89.038 2.625 0 1.736-.007 1.942-.038 2.627-.03.634-.136.978-.224 1.208-.118.303-.26.52-.487.747a2.018 2.018 0 0 1-.747.485c-.228.09-.573.195-1.207.225-.685.03-.891.037-2.627.037-1.736 0-1.94-.006-2.627-.037-.633-.03-.977-.135-1.206-.225a2.032 2.032 0 0 1-.748-.485 2.017 2.017 0 0 1-.487-.747c-.088-.23-.195-.574-.222-1.208-.033-.685-.04-.891-.04-2.627 0-1.735.007-1.94.04-2.625.027-.634.134-.978.222-1.208.118-.303.26-.52.487-.747.228-.228.444-.369.748-.487.229-.088.573-.195 1.206-.223.687-.03.891-.037 2.627-.037ZM6.5 0C4.735 0 4.514.007 3.82.04c-.691.03-1.165.14-1.578.3a3.2 3.2 0 0 0-1.152.751c-.36.36-.584.723-.75 1.15-.16.414-.27.887-.3 1.579C.006 4.513 0 4.734 0 6.5c0 1.764.007 1.987.04 2.68.03.692.14 1.164.3 1.577.166.427.39.79.75 1.152.362.36.724.583 1.152.748.413.161.887.27 1.578.304.694.03.915.039 2.68.039 1.765 0 1.986-.008 2.68-.04.693-.032 1.165-.142 1.578-.303.428-.165.79-.388 1.152-.748.36-.363.584-.725.75-1.152.16-.413.27-.885.302-1.577.031-.693.038-.916.038-2.68 0-1.766-.007-1.987-.038-2.68-.032-.692-.142-1.165-.303-1.578a3.173 3.173 0 0 0-.749-1.15A3.2 3.2 0 0 0 10.758.34C10.345.18 9.873.07 9.18.039 8.486.007 8.265 0 6.5 0Zm.013 3.173a3.34 3.34 0 1 0 0 6.679 3.339 3.339 0 1 0 0-6.68Zm0 5.507a2.168 2.168 0 1 1-.001-4.335 2.168 2.168 0 0 1 .001 4.335Zm4.217-5.663a.774.774 0 1 1-1.548.002.774.774 0 0 1 1.548-.002Z" clip-rule="evenodd"/>
	</symbol>
	<symbol fill="none" viewBox="0 0 13 13" id="icon-phone">
		<path fill="currentColor" fill-rule="evenodd" d="M9.534 7.8c-.867.867-.867 1.733-1.734 1.733S6.066 8.667 5.2 7.8c-.867-.867-1.734-1.733-1.734-2.6s.867-.867 1.734-1.733C6.066 2.601 3.466 0 2.6 0 1.731 0 0 2.6 0 2.6c0 1.733 1.78 5.248 3.466 6.933C5.151 11.219 8.666 13 10.401 13c0 0 2.599-1.734 2.599-2.6 0-.868-2.6-3.467-3.466-2.6Z" clip-rule="evenodd"/>
	</symbol>
	<symbol fill="none" viewBox="0 0 43 43" id="icon-tg--colored">
		<path fill="#08C" d="M0 21.078c0 11.64 9.437 21.077 21.078 21.077 11.64 0 21.077-9.437 21.077-21.078C42.155 9.438 32.718 0 21.077 0 9.438 0 0 9.437 0 21.078Z"/>
		<path fill="#fff" d="M10.67 20.694c5.658-2.465 9.431-4.09 11.319-4.876 5.39-2.242 6.51-2.631 7.24-2.644.16-.003.52.037.752.226.196.16.25.374.276.525.026.151.058.495.032.764-.292 3.07-1.555 10.517-2.198 13.954-.272 1.454-.808 1.942-1.327 1.99-1.127.104-1.983-.745-3.074-1.46-1.709-1.12-2.674-1.817-4.332-2.91-1.916-1.263-.674-1.957.418-3.091.286-.297 5.252-4.814 5.348-5.224.012-.05.024-.242-.09-.343-.113-.1-.281-.066-.402-.039-.171.04-2.9 1.843-8.186 5.411-.775.532-1.477.791-2.105.778-.693-.015-2.026-.392-3.017-.714-1.216-.395-2.182-.604-2.097-1.275.043-.35.525-.707 1.443-1.072Z"/>
	</symbol>
	<symbol fill="none" viewBox="0 0 13 13" id="icon-tg">
		<path fill="currentColor" fill-rule="evenodd" d="m12.993.544-1.857 11.143a.458.458 0 0 1-.63.348L7.22 10.693l-1.757 2.14a.426.426 0 0 1-.356.167.387.387 0 0 1-.159-.03.456.456 0 0 1-.22-.17.456.456 0 0 1-.084-.265v-2.53l6.268-7.683-7.755 6.709L.291 7.856c-.179-.067-.275-.2-.29-.398a.428.428 0 0 1 .233-.428L12.304.066a.448.448 0 0 1 .494.014c.16.117.225.27.195.464Z" clip-rule="evenodd"/>
	</symbol>
	<symbol fill="none" viewBox="0 0 14 8" id="icon-vk">
		<path fill="currentColor" fill-rule="evenodd" d="M7.687 7.966s.252-.029.382-.167c.118-.128.114-.369.114-.369s-.016-1.123.506-1.29c.512-.163 1.173 1.087 1.871 1.567.53.365.93.286.93.286l1.87-.027s.98-.06.515-.83c-.037-.064-.27-.571-1.39-1.612-1.173-1.089-1.016-.913.398-2.798.858-1.148 1.203-1.85 1.095-2.149-.101-.287-.735-.21-.735-.21L11.138.38s-.155-.023-.272.047c-.113.068-.186.227-.186.227s-.332.887-.777 1.643c-.938 1.594-1.312 1.678-1.466 1.58-.357-.232-.267-.927-.267-1.422C8.17.911 8.405.266 7.715.1c-.23-.055-.398-.092-.983-.098C5.98-.006 5.345.005 4.985.18c-.24.117-.424.379-.311.394.138.02.454.086.62.313.216.294.21.953.21.953s.122 1.82-.291 2.045c-.284.155-.673-.16-1.508-1.607-.429-.74-.752-1.56-.752-1.56S2.891.567 2.78.485c-.135-.099-.323-.13-.323-.13l-2 .012s-.3.01-.41.14C-.052.62.038.862.038.862s1.565 3.67 3.34 5.52C5.002 8.076 6.85 7.965 6.85 7.965h.837Z" clip-rule="evenodd"/>
	</symbol>
	<symbol fill="none" viewBox="0 0 43 43" id="icon-whatsapp--colored">
		<path fill="#25D366" d="M.376 21.078c0 11.64 9.437 21.077 21.078 21.077 11.64 0 21.077-9.437 21.077-21.078C42.531 9.438 33.095 0 21.454 0 9.814 0 .376 9.437.376 21.078Z"/>
		<path fill="#fff" fill-rule="evenodd" d="M28.83 13.569c-1.975-1.976-4.61-3.03-7.376-3.03-5.796 0-10.539 4.742-10.539 10.539 0 1.844.527 3.688 1.45 5.27l-1.45 5.268 5.533-1.448c1.58.79 3.293 1.317 5.006 1.317 5.796 0 10.538-4.743 10.538-10.539 0-2.766-1.185-5.401-3.161-7.377Zm-7.376 16.203c-1.581 0-3.162-.395-4.48-1.185l-.263-.132-3.293.922.922-3.162-.263-.395c-.922-1.449-1.318-3.03-1.318-4.61 0-4.743 3.952-8.695 8.695-8.695 2.371 0 4.479.922 6.191 2.503 1.713 1.713 2.503 3.82 2.503 6.191 0 4.611-3.82 8.563-8.694 8.563Zm4.742-6.586c-.263-.132-1.58-.79-1.844-.79-.264-.133-.395-.133-.527.13-.132.264-.659.791-.79 1.055-.132.131-.264.131-.527.131-.264-.131-1.054-.395-2.108-1.317-.79-.659-1.317-1.58-1.45-1.844-.13-.264 0-.395.133-.527l.395-.395c.131-.132.131-.264.263-.396.132-.131 0-.263 0-.395 0-.131-.527-1.449-.79-1.976-.132-.395-.395-.395-.527-.395h-.527c-.132 0-.395 0-.659.264-.263.263-.922.922-.922 2.239 0 1.317.922 2.503 1.054 2.767.132.131 1.844 2.898 4.479 3.952 2.24.922 2.635.658 3.162.658.527 0 1.58-.659 1.712-1.185.264-.66.264-1.186.132-1.186-.132-.659-.395-.659-.659-.79Z" clip-rule="evenodd"/>
	</symbol>
	<symbol fill="none" viewBox="0 0 12 8" id="icon-youtube">
		<path fill="currentColor" fill-rule="evenodd" d="M12 6.036V1.963S12 0 9.932 0H2.067S0 0 0 1.963v4.073S0 8 2.067 8h7.865S12 8 12 6.036ZM8.33 4.005 4.4 6.197V1.815l3.928 2.19Z" clip-rule="evenodd"/>
	</symbol>
</svg>
